<?xml version="1.0" encoding="UTF-8" standalone="no"?>
<svg
   xmlns:dc="http://purl.org/dc/elements/1.1/"
   xmlns:cc="http://creativecommons.org/ns#"
   xmlns:rdf="http://www.w3.org/1999/02/22-rdf-syntax-ns#"
   xmlns:svg="http://www.w3.org/2000/svg"
   xmlns="http://www.w3.org/2000/svg"
   xmlns:sodipodi="http://sodipodi.sourceforge.net/DTD/sodipodi-0.dtd"
   xmlns:inkscape="http://www.inkscape.org/namespaces/inkscape"
   version="1.1"
   id="svg2"
   xml:space="preserve"
   width="1090.8533"
   height="87.146667"
   viewBox="0 0 1090.8533 87.146667"
   sodipodi:docname="CtrSciSocialConnect_uw_wt.eps"><metadata
     id="metadata8"><rdf:RDF><cc:Work
         rdf:about=""><dc:format>image/svg+xml</dc:format><dc:type
           rdf:resource="http://purl.org/dc/dcmitype/StillImage" /></cc:Work></rdf:RDF></metadata><defs
     id="defs6" /><sodipodi:namedview
     pagecolor="#ffffff"
     bordercolor="#666666"
     borderopacity="1"
     objecttolerance="10"
     gridtolerance="10"
     guidetolerance="10"
     inkscape:pageopacity="0"
     inkscape:pageshadow="2"
     inkscape:window-width="640"
     inkscape:window-height="480"
     id="namedview4" /><g
     id="g10"
     inkscape:groupmode="layer"
     inkscape:label="ink_ext_XXXXXX"
     transform="matrix(1.3333333,0,0,-1.3333333,0,87.146667)"><g
       id="g12"
       transform="scale(0.1)"><path
         d="m 1127.97,91.9727 c 0,-25.0508 21.18,-44.1602 47.29,-44.1602 24.78,0 49.32,18.3203 49.32,44.1602 v 98.4253 l 12.92,13.165 h -39.76 l 13.14,-13.165 V 91.9727 c 0,-17.5704 -13.93,-31.5235 -31.51,-31.5235 -17.82,0 -33.57,13.6797 -33.57,31.5235 v 98.4253 l 13.17,13.165 h -44.18 l 13.18,-13.165 z M 1299.5,64.3359 V 178.523 l 81.77,-127.3628 h 5.31 V 190.398 l 13.15,13.165 h -39.78 l 13.19,-13.165 V 93.5156 l -68.72,110.0474 h -31.51 l 12.89,-13.165 V 64.3359 l -12.89,-13.1757 h 39.76 z m 141.82,139.2271 12.15,-12.129 V 63.3008 l -12.15,-12.1406 h 41.07 l -12.13,12.1406 V 191.434 l 12.13,12.129 z m 118.33,0 h -43.15 l 12.4,-12.129 42.89,-140.2738 h 7.75 l 44.18,140.2738 12.4,12.129 h -36.67 l 11.88,-11.856 -32.3,-105.4297 -31.27,105.4297 z M 1757.28,51.1602 V 79.0234 L 1741,62.5195 h -46.24 V 126.59 h 34.36 l 12.14,-12.137 v 35.652 l -12.14,-12.156 h -34.36 v 54.246 H 1741 l 16.28,-16.269 v 27.637 h -91.19 l 11.88,-12.129 V 63.3008 l -11.88,-12.1406 z m 68.45,12.1406 v 58.8942 h 23 l 36.92,-71.0348 h 25.34 l -11.89,12.1406 -34.09,62.5192 c 17.04,5.164 28.68,21.18 28.68,35.625 0,25.86 -24.03,42.118 -49.34,42.118 h -47.3 l 11.89,-12.129 V 63.3008 l -11.89,-12.1406 h 40.83 z m 0,128.8942 h 18.62 c 16.27,0 29.17,-13.925 29.17,-30.457 0,-15.781 -13.15,-28.175 -29.17,-28.175 h -18.62 z m 195.83,-98.6794 c 0,14.9884 -6.99,24.2774 -14.2,29.2074 l -31.02,22.461 c -11.12,8.007 -16.77,18.359 -16.77,26.093 0,16.028 13.67,21.692 21.94,21.692 4.39,0 7.49,-1.809 9.82,-1.809 l 13.44,-14.453 14.2,21.191 -30.22,5.665 c -2.07,0.527 -3.36,0.781 -7.24,0.781 -26.6,0 -38.75,-22.735 -38.75,-37.461 0,-11.621 5.94,-24.793 19.65,-34.871 l 31.24,-22.469 c 8.53,-5.949 10.86,-14.7383 10.86,-22.2188 0,-12.9219 -8.02,-26.875 -25.32,-26.875 -4.13,0 -7.75,0.7617 -10.58,2.0703 l -14.48,17.0586 -13.19,-23.7773 29.21,-5.6758 c 0,0 4.91,-1.043 9.04,-1.043 18.33,0 42.37,15.5157 42.37,44.4336 m 44.17,110.0474 12.15,-12.129 V 63.3008 l -12.15,-12.1406 h 41.08 l -12.14,12.1406 V 191.434 l 12.14,12.129 z M 2203.95,63.3008 V 192.195 h 28.93 l 16.27,-16.269 v 27.637 h -107.22 v -27.637 l 16.53,16.269 h 28.67 V 63.3008 l -11.86,-12.1406 h 40.82 z m 80.33,128.1332 38.5,-69.493 V 63.3008 l -12.14,-12.1406 h 41.06 l -12.14,12.1406 v 58.6402 l 39.27,69.219 12.67,12.403 h -37.72 l 11.89,-11.856 -32.05,-57.129 -30.47,57.129 11.87,11.856 h -43.14 z m 248.69,-43.766 c -5.57,0 -14.37,-2.582 -23.17,-7.738 -14.82,-8.778 -30.91,-28.739 -30.91,-58.7894 0,-15.0156 7.1,-31.7773 27.04,-31.7773 9.45,0 22.97,6.2305 31.99,14.375 14.15,12.8828 22.54,35 22.54,54.0937 0,17.813 -9.45,29.836 -27.49,29.836 m -36.7,-61.3907 c 0,31.7777 16.1,48.9457 22.76,51.7307 1.93,0.859 4.92,1.726 7.09,1.726 10.72,0 16.93,-8.164 16.93,-24.707 0.45,-27.859 -14.15,-53.2223 -23.17,-56.2106 -1.72,-0.6523 -4.5,-1.4922 -6.64,-1.4922 -12.01,0 -16.97,12.8711 -16.97,28.9531 m 96.6,56.2427 -5.8,-5.579 0.64,-2.136 h 17.8 c -2.78,-19.336 -5.37,-36.0667 -9.44,-63.1175 -5.79,-40.1172 -10.72,-54.2969 -14.79,-57.7227 -1.3,-1.2968 -3.44,-1.9453 -5.37,-1.9453 -2.59,0 -6.67,1.9453 -9.45,3.2149 -2.59,1.3164 -4.73,-0.2071 -6,-1.4961 -1.71,-1.9336 -3.65,-4.91017 -3.65,-7.30471 0,-4.28515 5.58,-6.43359 9.23,-6.43359 4.07,0 14.37,3.45703 23.6,14.8242 7.3,9.0039 17.17,29.8242 25.53,78.3281 1.51,9.0357 3.23,18.0387 6.88,41.6527 l 21.87,2.136 4.74,5.579 h -25.32 c 6.43,39.687 11.8,51.738 21.03,51.738 6.43,0 11.81,-2.598 16.52,-7.11 1.5,-1.496 3.86,-1.496 6,0.227 1.72,1.512 4.31,4.949 4.31,7.926 0.22,4.316 -5.59,9.015 -12.88,9.015 -12.46,0 -25.53,-7.296 -34.55,-18.007 -8.39,-10.11 -13.95,-26.399 -16.96,-43.789 z m 225.88,-91.3598 34.87,110.2848 33.85,-110.2848 h 7.75 l 44.16,140.2738 12.42,12.129 h -36.7 l 11.89,-11.856 -32.28,-105.4297 -31.27,105.4297 11.89,11.856 h -43.15 l 12.15,-12.129 3.09,-10.079 -29.18,-95.0777 -31.27,105.4297 11.89,11.856 h -43.15 L 2768.1,191.434 2811,51.1602 Z m 162.05,11.875 11.12,32.2968 h 50.37 l 10.59,-32.2968 -11.89,-11.875 h 43.15 l -12.13,12.3945 -47.54,140.0083 h -7.76 l -48.3,-140.0083 -12.4,-12.3945 h 36.68 z m 36.69,106.6988 20.94,-63.027 h -42.64 z m 170.54,-76.2184 c 0,14.9884 -6.98,24.2774 -14.22,29.2074 l -30.98,22.461 c -11.12,8.007 -16.82,18.359 -16.82,26.093 0,16.028 13.7,21.692 21.97,21.692 4.39,0 7.49,-1.809 9.83,-1.809 l 13.41,-14.453 14.22,21.191 -30.22,5.665 c -2.08,0.527 -3.36,0.781 -7.24,0.781 -26.61,0 -38.75,-22.735 -38.75,-37.461 0,-11.621 5.94,-24.793 19.63,-34.871 l 31.26,-22.469 c 8.54,-5.949 10.85,-14.7383 10.85,-22.2188 0,-12.9219 -8.01,-26.875 -25.33,-26.875 -4.11,0 -7.74,0.7617 -10.59,2.0703 l -14.45,17.0586 -13.17,-23.7773 29.18,-5.6758 c 0,0 4.92,-1.043 9.03,-1.043 18.37,0 42.39,15.5157 42.39,44.4336 m 68.7,34.1014 h 64.07 V 63.3008 l -12.14,-12.1406 h 41.09 l -12.16,12.1406 V 191.434 l 12.16,12.129 h -41.09 l 12.14,-12.129 v -52.469 h -64.07 v 52.469 l 12.16,12.129 h -40.84 l 11.89,-12.129 V 63.3008 l -11.89,-12.1406 h 40.84 l -12.16,12.1406 z m 135.38,75.946 12.14,-12.129 V 63.3008 l -12.14,-12.1406 h 41.07 l -12.14,12.1406 V 191.434 l 12.14,12.129 z M 3501.4,64.3359 V 178.523 l 80.18,-127.4214 6.88,0.0586 V 190.398 l 13.16,13.165 h -39.78 l 13.17,-13.165 V 93.5156 L 3506.3,203.563 h -31.53 l 12.94,-13.165 V 64.3359 l -12.94,-13.1757 h 39.78 z m 225.98,56.0431 V 71.3086 c -3.61,-3.6055 -10.85,-10.8594 -25.07,-10.8594 -33.82,0 -50.89,34.1211 -50.89,66.9258 0,33.074 21.45,66.902 50.89,66.902 7.78,0 13.43,-1.808 18.61,-7.234 l 16.79,-16.543 v 26.363 c -9.03,4.649 -18.08,8.789 -35.4,8.789 -41.57,0 -70.78,-37.207 -70.78,-78.277 0,-40.2969 29.21,-78.293 70.78,-78.293 23.51,0 33.6,5.6914 41.85,11.1211 v 60.1759 l 11.89,12.148 h -40.82 z M 3840.22,63.3008 V 192.195 h 28.92 l 16.28,-16.269 v 27.637 h -107.19 v -27.637 l 16.53,16.269 h 28.67 V 63.3008 l -11.88,-12.1406 h 40.81 z m 68.94,64.0742 c 0,-38.7734 21.93,-79.5625 60.95,-79.5625 39.28,0 61.21,40.7891 61.21,79.5625 0,38.727 -21.93,79.566 -61.21,79.566 -39.02,0 -60.95,-40.839 -60.95,-79.566 m 60.95,-67.9727 c -30.49,0 -41.07,36.4375 -41.07,67.9727 0,31.52 10.58,67.926 41.07,67.926 30.76,0 41.35,-36.406 41.35,-67.926 0,-31.5352 -10.59,-67.9727 -41.35,-67.9727 m 117.76,4.9336 V 178.523 l 79.27,-127.3628 h 7.8 V 190.398 l 13.16,13.165 h -39.8 l 13.2,-13.165 V 93.5156 l -68.73,110.0474 h -31.51 l 12.93,-13.165 V 64.3359 l -12.93,-13.1757 h 39.77 l -13.16,13.1757"
         style="fill:#ffffff;fill-opacity:1;fill-rule:nonzero;stroke:none"
         id="path14" /><path
         d="M 1109.29,328.063 H 8181.43"
         style="fill:#ffffff;fill-opacity:1;fill-rule:nonzero;stroke:none"
         id="path16" /><path
         d="M 1109.29,328.063 H 8181.43"
         style="fill:none;stroke:#ffffff;stroke-width:5;stroke-linecap:butt;stroke-linejoin:miter;stroke-miterlimit:4;stroke-dasharray:none;stroke-opacity:1"
         id="path18" /><path
         d="M 651.176,648.316 V 540.699 h 75.633 l -84.442,-314.25 c 0,0 -103.32,416.008 -104.804,421.867 H 428.277 C 426.723,642.598 314.934,226.43 314.934,226.43 l -77.786,314.269 h 78.766 V 648.316 H 0 V 540.699 h 70.0039 c 0,0 120.7931,-483.1599 122.2541,-489.0193 h 169.551 c 1.511,5.7226 80.961,307.6993 80.961,307.6993 0,0 75.476,-301.879 76.929,-307.6993 h 169.578 c 1.5,5.7617 128.614,489.0193 128.614,489.0193 h 69.41 V 648.316 H 651.176"
         style="fill:#ffffff;fill-opacity:1;fill-rule:nonzero;stroke:none"
         id="path20" /><path
         d="m 1214.86,440.945 c -53.08,0 -87.31,51.926 -87.31,105.586 0,54.532 35.1,105.586 87.31,105.586 26.69,0 40.9,-6.672 51.93,-12.179 v -42.063 l -28.14,28.137 c -6.67,6.961 -13.92,9.863 -23.79,9.863 -39.16,0 -49.6,-49.312 -49.6,-89.344 0,-40.027 11.89,-89.34 49.6,-89.34 9.87,0 17.12,2.903 23.79,9.86 l 28.14,28.14 V 452.84 c -10.15,-6.09 -23.21,-11.895 -51.93,-11.895"
         style="fill:#ffffff;fill-opacity:1;fill-rule:nonzero;stroke:none"
         id="path22" /><path
         d="m 1301.55,443.848 17.69,17.695 v 169.98 l -17.69,17.696 h 128.79 v -40.324 l -23.49,23.496 h -56.28 v -70.196 h 40.32 l 17.69,17.696 v -52.215 l -17.69,17.695 h -40.32 v -84.699 h 56.28 l 23.49,23.492 v -40.316 h -128.79"
         style="fill:#ffffff;fill-opacity:1;fill-rule:nonzero;stroke:none"
         id="path24" /><path
         d="M 1621.45,631.523 V 427.02 L 1502.53,611.797 V 461.543 l 17.69,-17.695 h -55.11 l 17.69,17.695 v 169.98 l -17.69,17.696 h 51.34 l 85.28,-133.727 v 116.031 l -17.69,17.696 h 55.11 l -17.7,-17.696"
         style="fill:#ffffff;fill-opacity:1;fill-rule:nonzero;stroke:none"
         id="path26" /><path
         d="m 1791.97,632.391 h -34.52 V 461.543 l 17.69,-17.695 h -66.71 l 17.69,17.695 v 170.848 h -34.52 l -23.49,-23.496 v 40.324 h 147.35 v -40.324 l -23.49,23.496"
         style="fill:#ffffff;fill-opacity:1;fill-rule:nonzero;stroke:none"
         id="path28" /><path
         d="m 1845.87,443.848 17.69,17.695 v 169.98 l -17.69,17.696 h 128.79 v -40.324 l -23.49,23.496 h -56.28 v -70.196 h 40.32 l 17.7,17.696 v -52.215 l -17.7,17.695 h -40.32 v -84.699 h 56.28 l 23.49,23.492 v -40.316 h -128.79"
         style="fill:#ffffff;fill-opacity:1;fill-rule:nonzero;stroke:none"
         id="path30" /><path
         d="m 2083.4,632.391 h -24.95 v -77.446 h 24.95 c 19.72,0 35.1,15.082 35.1,38 0,23.496 -14.8,39.446 -35.1,39.446 z m 51.34,-188.543 -49.02,94.273 h -27.27 v -76.578 l 17.7,-17.695 h -66.72 l 17.69,17.695 v 169.98 l -17.69,17.696 h 73.97 c 34.81,0 70.77,-17.989 70.77,-56.274 0,-21.465 -15.66,-41.48 -38.29,-48.73 l 45.55,-82.672 17.69,-17.695 h -44.38"
         style="fill:#ffffff;fill-opacity:1;fill-rule:nonzero;stroke:none"
         id="path32" /><path
         d="m 2389.64,632.391 h -56.27 v -70.196 h 40.32 l 17.69,17.696 v -52.215 l -17.69,17.695 h -40.32 v -83.828 l 17.69,-17.695 h -66.71 l 17.69,17.695 v 169.98 l -17.69,17.696 h 128.79 v -40.324 l -23.5,23.496"
         style="fill:#ffffff;fill-opacity:1;fill-rule:nonzero;stroke:none"
         id="path34" /><path
         d="m 2533.19,636.742 c -39.16,0 -50.47,-49.597 -50.47,-90.211 0,-40.609 11.31,-90.215 50.47,-90.215 39.16,0 50.47,49.606 50.47,90.215 0,40.614 -11.31,90.211 -50.47,90.211 z m 0,-197.246 c -54.24,0 -88.18,53.375 -88.18,107.035 0,53.664 33.94,107.039 88.18,107.039 54.24,0 88.18,-53.375 88.18,-107.039 0,-53.66 -33.94,-107.035 -88.18,-107.035"
         style="fill:#ffffff;fill-opacity:1;fill-rule:nonzero;stroke:none"
         id="path36" /><path
         d="m 2732.71,632.391 h -24.95 v -77.446 h 24.95 c 19.72,0 35.09,15.082 35.09,38 0,23.496 -14.79,39.446 -35.09,39.446 z m 51.34,-188.543 -49.02,94.273 h -27.27 v -76.578 l 17.7,-17.695 h -66.72 l 17.69,17.695 v 169.98 l -17.69,17.696 h 73.97 c 34.8,0 70.77,-17.989 70.77,-56.274 0,-21.465 -15.66,-41.48 -38.29,-48.73 l 45.54,-82.672 17.7,-17.695 h -44.38"
         style="fill:#ffffff;fill-opacity:1;fill-rule:nonzero;stroke:none"
         id="path38" /><path
         d="m 3053.16,632.391 h -34.52 V 461.543 l 17.7,-17.695 h -66.72 l 17.69,17.695 v 170.848 h -34.51 l -23.5,-23.496 v 40.324 h 147.36 v -40.324 l -23.5,23.496"
         style="fill:#ffffff;fill-opacity:1;fill-rule:nonzero;stroke:none"
         id="path40" /><path
         d="m 3215.85,443.848 17.69,17.695 v 83.828 h -77.45 v -83.828 l 17.7,-17.695 h -66.72 l 17.7,17.695 v 169.98 l -17.7,17.696 h 66.72 l -17.7,-17.696 v -69.328 h 77.45 v 69.328 l -17.69,17.696 h 66.71 l -17.69,-17.696 v -169.98 l 17.69,-17.695 h -66.71"
         style="fill:#ffffff;fill-opacity:1;fill-rule:nonzero;stroke:none"
         id="path42" /><path
         d="m 3317.31,443.848 17.7,17.695 v 169.98 l -17.7,17.696 h 128.8 v -40.324 l -23.5,23.496 h -56.27 v -70.196 h 40.32 l 17.69,17.696 v -52.215 l -17.69,17.695 h -40.32 v -84.699 h 56.27 l 23.5,23.492 v -40.316 h -128.8"
         style="fill:#ffffff;fill-opacity:1;fill-rule:nonzero;stroke:none"
         id="path44" /><path
         d="m 3620.38,441.527 c -6.09,0 -13.06,0.582 -17.99,1.45 l -42.63,7.539 20.59,37.711 22.62,-28.426 c 4.65,-2.903 13.06,-4.352 19.73,-4.352 27.27,0 35.39,23.496 35.39,36.258 0,14.797 -9.29,24.078 -18.57,30.168 l -42.06,27.559 c -17.4,11.312 -27.55,27.847 -27.55,46.992 0,37.418 30.74,55.113 58.59,55.113 9.28,0 17.7,-1.746 25.53,-3.195 l 31.33,-5.801 -20.6,-34.805 -18.56,22.621 c -4.07,3.77 -9,6.094 -15.96,6.094 -19.72,0 -31.03,-15.082 -31.03,-28.426 0,-11.312 5.51,-21.757 21.17,-32.199 l 36.26,-24.074 c 15.95,-10.734 30.17,-24.367 30.17,-46.414 0,-33.067 -20.02,-63.813 -66.43,-63.813"
         style="fill:#ffffff;fill-opacity:1;fill-rule:nonzero;stroke:none"
         id="path46" /><path
         d="m 3812.65,440.945 c -53.08,0 -87.31,51.926 -87.31,105.586 0,54.532 35.1,105.586 87.31,105.586 26.69,0 40.9,-6.672 51.93,-12.179 v -42.063 l -28.14,28.137 c -6.67,6.961 -13.93,9.863 -23.79,9.863 -39.16,0 -49.6,-49.312 -49.6,-89.344 0,-40.027 11.89,-89.34 49.6,-89.34 9.86,0 17.12,2.903 23.79,9.86 l 28.14,28.14 V 452.84 c -10.16,-6.09 -23.21,-11.895 -51.93,-11.895"
         style="fill:#ffffff;fill-opacity:1;fill-rule:nonzero;stroke:none"
         id="path48" /><path
         d="m 3902.25,443.848 17.69,17.695 v 169.98 l -17.69,17.696 h 66.71 l -17.7,-17.696 v -169.98 l 17.7,-17.695 h -66.71"
         style="fill:#ffffff;fill-opacity:1;fill-rule:nonzero;stroke:none"
         id="path50" /><path
         d="m 4006.64,443.848 17.7,17.695 v 169.98 l -17.7,17.696 h 128.79 v -40.324 l -23.5,23.496 h -56.28 v -70.196 h 40.33 l 17.69,17.696 v -52.215 l -17.69,17.695 h -40.33 v -84.699 h 56.28 l 23.5,23.492 v -40.316 h -128.79"
         style="fill:#ffffff;fill-opacity:1;fill-rule:nonzero;stroke:none"
         id="path52" /><path
         d="M 4326.54,631.523 V 427.02 L 4207.61,611.797 V 461.543 l 17.69,-17.695 h -55.1 l 17.69,17.695 v 169.98 l -17.69,17.696 h 51.33 l 85.29,-133.727 v 116.031 l -17.7,17.696 h 55.11 l -17.69,-17.696"
         style="fill:#ffffff;fill-opacity:1;fill-rule:nonzero;stroke:none"
         id="path54" /><path
         d="m 4467.47,440.945 c -53.08,0 -87.31,51.926 -87.31,105.586 0,54.532 35.09,105.586 87.31,105.586 26.68,0 40.9,-6.672 51.92,-12.179 v -42.063 l -28.14,28.137 c -6.67,6.961 -13.93,9.863 -23.78,9.863 -39.16,0 -49.61,-49.312 -49.61,-89.344 0,-40.027 11.9,-89.34 49.61,-89.34 9.85,0 17.11,2.903 23.78,9.86 l 28.14,28.14 V 452.84 c -10.15,-6.09 -23.21,-11.895 -51.92,-11.895"
         style="fill:#ffffff;fill-opacity:1;fill-rule:nonzero;stroke:none"
         id="path56" /><path
         d="m 4554.15,443.848 17.69,17.695 v 169.98 l -17.69,17.696 h 128.79 v -40.324 l -23.5,23.496 h -56.28 v -70.196 h 40.33 l 17.69,17.696 v -52.215 l -17.69,17.695 h -40.33 v -84.699 h 56.28 l 23.5,23.492 v -40.316 h -128.79"
         style="fill:#ffffff;fill-opacity:1;fill-rule:nonzero;stroke:none"
         id="path58" /><path
         d="m 4893.48,636.742 c -39.16,0 -50.48,-49.597 -50.48,-90.211 0,-40.609 11.32,-90.215 50.48,-90.215 39.16,0 50.47,49.606 50.47,90.215 0,40.614 -11.31,90.211 -50.47,90.211 z m 0,-197.246 c -54.25,0 -88.19,53.375 -88.19,107.035 0,53.664 33.94,107.039 88.19,107.039 54.23,0 88.17,-53.375 88.17,-107.039 0,-53.66 -33.94,-107.035 -88.17,-107.035"
         style="fill:#ffffff;fill-opacity:1;fill-rule:nonzero;stroke:none"
         id="path60" /><path
         d="m 5124.32,632.391 h -56.28 v -70.196 h 40.32 l 17.69,17.696 v -52.215 l -17.69,17.695 h -40.32 v -83.828 l 17.69,-17.695 h -66.71 l 17.7,17.695 v 169.98 l -17.7,17.696 h 128.79 v -40.324 l -23.49,23.496"
         style="fill:#ffffff;fill-opacity:1;fill-rule:nonzero;stroke:none"
         id="path62" /><path
         d="m 5316.57,441.527 c -6.09,0 -13.05,0.582 -17.99,1.45 l -42.63,7.539 20.59,37.711 22.63,-28.426 c 4.64,-2.903 13.05,-4.352 19.72,-4.352 27.27,0 35.39,23.496 35.39,36.258 0,14.797 -9.28,24.078 -18.57,30.168 l -42.06,27.559 c -17.4,11.312 -27.56,27.847 -27.56,46.992 0,37.418 30.76,55.113 58.6,55.113 9.28,0 17.69,-1.746 25.52,-3.195 l 31.33,-5.801 -20.59,-34.805 -18.57,22.621 c -4.05,3.77 -8.98,6.094 -15.94,6.094 -19.73,0 -31.05,-15.082 -31.05,-28.426 0,-11.312 5.52,-21.757 21.18,-32.199 l 36.26,-24.074 c 15.95,-10.734 30.17,-24.367 30.17,-46.414 0,-33.067 -20.02,-63.813 -66.43,-63.813"
         style="fill:#ffffff;fill-opacity:1;fill-rule:nonzero;stroke:none"
         id="path64" /><path
         d="m 5509.72,636.742 c -39.16,0 -50.48,-49.597 -50.48,-90.211 0,-40.609 11.32,-90.215 50.48,-90.215 39.16,0 50.47,49.606 50.47,90.215 0,40.614 -11.31,90.211 -50.47,90.211 z m 0,-197.246 c -54.25,0 -88.19,53.375 -88.19,107.035 0,53.664 33.94,107.039 88.19,107.039 54.23,0 88.17,-53.375 88.17,-107.039 0,-53.66 -33.94,-107.035 -88.17,-107.035"
         style="fill:#ffffff;fill-opacity:1;fill-rule:nonzero;stroke:none"
         id="path66" /><path
         d="m 5725.19,440.945 c -53.09,0 -87.32,51.926 -87.32,105.586 0,54.532 35.1,105.586 87.32,105.586 26.68,0 40.89,-6.672 51.91,-12.179 v -42.063 l -28.14,28.137 c -6.67,6.961 -13.92,9.863 -23.77,9.863 -39.16,0 -49.61,-49.312 -49.61,-89.344 0,-40.027 11.89,-89.34 49.61,-89.34 9.85,0 17.1,2.903 23.77,9.86 l 28.14,28.14 V 452.84 c -10.15,-6.09 -23.2,-11.895 -51.91,-11.895"
         style="fill:#ffffff;fill-opacity:1;fill-rule:nonzero;stroke:none"
         id="path68" /><path
         d="m 5814.78,443.848 17.7,17.695 v 169.98 l -17.7,17.696 h 66.7 l -17.7,-17.696 v -169.98 l 17.7,-17.695 h -66.7"
         style="fill:#ffffff;fill-opacity:1;fill-rule:nonzero;stroke:none"
         id="path70" /><path
         d="m 5989.08,602.227 -28.73,-83.539 h 55.99 z m 28.71,-158.379 17.4,17.402 -13.05,40.609 h -67.59 l -13.64,-40.609 17.42,-17.402 h -55.11 l 17.99,17.984 65.25,187.387 h 19.14 l 63.83,-187.387 17.97,-17.984 h -69.61"
         style="fill:#ffffff;fill-opacity:1;fill-rule:nonzero;stroke:none"
         id="path72" /><path
         d="m 6109.12,443.848 17.69,17.695 v 169.98 l -17.69,17.696 h 66.71 l -17.69,-17.696 V 460.672 h 49.02 l 23.5,23.492 v -40.316 h -121.54"
         style="fill:#ffffff;fill-opacity:1;fill-rule:nonzero;stroke:none"
         id="path74" /><path
         d="m 6434.8,440.945 c -53.09,0 -87.3,51.926 -87.3,105.586 0,54.532 35.09,105.586 87.3,105.586 26.68,0 40.9,-6.672 51.91,-12.179 v -42.063 l -28.12,28.137 c -6.68,6.961 -13.93,9.863 -23.79,9.863 -39.16,0 -49.61,-49.312 -49.61,-89.344 0,-40.027 11.89,-89.34 49.61,-89.34 9.86,0 17.11,2.903 23.79,9.86 l 28.12,28.14 V 452.84 c -10.13,-6.09 -23.2,-11.895 -51.91,-11.895"
         style="fill:#ffffff;fill-opacity:1;fill-rule:nonzero;stroke:none"
         id="path76" /><path
         d="m 6612.28,636.742 c -39.16,0 -50.47,-49.597 -50.47,-90.211 0,-40.609 11.31,-90.215 50.47,-90.215 39.16,0 50.47,49.606 50.47,90.215 0,40.614 -11.31,90.211 -50.47,90.211 z m 0,-197.246 c -54.24,0 -88.18,53.375 -88.18,107.035 0,53.664 33.94,107.039 88.18,107.039 54.24,0 88.18,-53.375 88.18,-107.039 0,-53.66 -33.94,-107.035 -88.18,-107.035"
         style="fill:#ffffff;fill-opacity:1;fill-rule:nonzero;stroke:none"
         id="path78" /><path
         d="M 6894.17,631.523 V 427.02 L 6775.25,611.797 V 461.543 l 17.69,-17.695 h -55.11 l 17.69,17.695 v 169.98 l -17.69,17.696 h 51.34 l 85.28,-133.727 v 116.031 l -17.7,17.696 h 55.12 l -17.7,-17.696"
         style="fill:#ffffff;fill-opacity:1;fill-rule:nonzero;stroke:none"
         id="path80" /><path
         d="M 7101.52,631.523 V 427.02 L 6982.59,611.797 V 461.543 l 17.7,-17.695 h -55.12 l 17.7,17.695 v 169.98 l -17.7,17.696 h 51.35 l 85.27,-133.727 v 116.031 l -17.69,17.696 h 55.11 l -17.69,-17.696"
         style="fill:#ffffff;fill-opacity:1;fill-rule:nonzero;stroke:none"
         id="path82" /><path
         d="m 7152.53,443.848 17.68,17.695 v 169.98 l -17.68,17.696 h 128.79 v -40.324 l -23.49,23.496 h -56.29 v -70.196 h 40.33 l 17.7,17.696 v -52.215 l -17.7,17.695 h -40.33 v -84.699 h 56.29 l 23.49,23.492 v -40.316 h -128.79"
         style="fill:#ffffff;fill-opacity:1;fill-rule:nonzero;stroke:none"
         id="path84" /><path
         d="m 7406.01,440.945 c -53.09,0 -87.32,51.926 -87.32,105.586 0,54.532 35.09,105.586 87.32,105.586 26.68,0 40.9,-6.672 51.91,-12.179 v -42.063 l -28.14,28.137 c -6.66,6.961 -13.93,9.863 -23.77,9.863 -39.16,0 -49.61,-49.312 -49.61,-89.344 0,-40.027 11.9,-89.34 49.61,-89.34 9.84,0 17.11,2.903 23.77,9.86 l 28.14,28.14 V 452.84 c -10.15,-6.09 -23.2,-11.895 -51.91,-11.895"
         style="fill:#ffffff;fill-opacity:1;fill-rule:nonzero;stroke:none"
         id="path86" /><path
         d="m 7612.2,632.391 h -34.51 V 461.543 l 17.7,-17.695 h -66.72 l 17.69,17.695 v 170.848 h -34.53 l -23.5,-23.496 v 40.324 h 147.37 v -40.324 l -23.5,23.496"
         style="fill:#ffffff;fill-opacity:1;fill-rule:nonzero;stroke:none"
         id="path88" /><path
         d="m 7669.02,443.848 17.69,17.695 v 169.98 l -17.69,17.696 h 66.7 l -17.7,-17.696 v -169.98 l 17.7,-17.695 h -66.7"
         style="fill:#ffffff;fill-opacity:1;fill-rule:nonzero;stroke:none"
         id="path90" /><path
         d="m 7864.19,636.742 c -39.16,0 -50.46,-49.597 -50.46,-90.211 0,-40.609 11.3,-90.215 50.46,-90.215 39.16,0 50.47,49.606 50.47,90.215 0,40.614 -11.31,90.211 -50.47,90.211 z m 0,-197.246 c -54.23,0 -88.18,53.375 -88.18,107.035 0,53.664 33.95,107.039 88.18,107.039 54.24,0 88.19,-53.375 88.19,-107.039 0,-53.66 -33.95,-107.035 -88.19,-107.035"
         style="fill:#ffffff;fill-opacity:1;fill-rule:nonzero;stroke:none"
         id="path92" /><path
         d="M 8146.09,631.523 V 427.02 L 8027.16,611.797 V 461.543 l 17.7,-17.695 h -55.12 l 17.7,17.695 v 169.98 l -17.7,17.696 h 51.35 l 85.27,-133.727 v 116.031 l -17.69,17.696 h 55.11 l -17.69,-17.696"
         style="fill:#ffffff;fill-opacity:1;fill-rule:nonzero;stroke:none"
         id="path94" /></g></g></svg>
