<?xml version="1.0" encoding="UTF-8" standalone="no"?>
<svg
   xmlns:dc="http://purl.org/dc/elements/1.1/"
   xmlns:cc="http://creativecommons.org/ns#"
   xmlns:rdf="http://www.w3.org/1999/02/22-rdf-syntax-ns#"
   xmlns:svg="http://www.w3.org/2000/svg"
   xmlns="http://www.w3.org/2000/svg"
   xmlns:sodipodi="http://sodipodi.sourceforge.net/DTD/sodipodi-0.dtd"
   xmlns:inkscape="http://www.inkscape.org/namespaces/inkscape"
   version="1.1"
   id="svg2"
   xml:space="preserve"
   width="369.07999"
   height="44.439999"
   viewBox="0 0 369.07999 44.439999"
   sodipodi:docname="Dept.Psychology_UW_wt.eps"><metadata
     id="metadata8"><rdf:RDF><cc:Work
         rdf:about=""><dc:format>image/svg+xml</dc:format><dc:type
           rdf:resource="http://purl.org/dc/dcmitype/StillImage" /></cc:Work></rdf:RDF></metadata><defs
     id="defs6" /><sodipodi:namedview
     pagecolor="#ffffff"
     bordercolor="#666666"
     borderopacity="1"
     objecttolerance="10"
     gridtolerance="10"
     guidetolerance="10"
     inkscape:pageopacity="0"
     inkscape:pageshadow="2"
     inkscape:window-width="640"
     inkscape:window-height="480"
     id="namedview4" /><g
     id="g10"
     inkscape:groupmode="layer"
     inkscape:label="ink_ext_XXXXXX"
     transform="matrix(1.3333333,0,0,-1.3333333,0,44.44)"><g
       id="g12"
       transform="scale(0.1)"><path
         d="m 575.266,46.9063 c 0,-12.7735 10.8,-22.5235 24.117,-22.5235 12.64,0 25.152,9.3438 25.152,22.5235 v 50.1953 l 6.59,6.7144 h -20.277 l 6.703,-6.7144 V 46.9063 c 0,-8.961 -7.106,-16.0782 -16.071,-16.0782 -9.089,0 -17.125,6.9766 -17.125,16.0782 v 50.1953 l 6.719,6.7144 h -22.531 l 6.723,-6.7144 z m 87.48,-14.0977 v 58.2383 l 41.703,-64.9571 h 2.711 v 71.0118 l 6.703,6.7144 h -20.289 l 6.731,-6.7144 V 47.6914 l -35.051,56.1246 h -16.07 l 6.574,-6.7144 v -64.293 l -6.574,-6.7188 h 20.281 z m 72.328,71.0074 6.196,-6.1832 V 32.2813 l -6.196,-6.1915 h 20.946 l -6.192,6.1915 v 65.3515 l 6.192,6.1832 z m 60.348,0 h -22.008 l 6.328,-6.1832 21.871,-71.543 h 3.953 l 22.532,71.543 6.328,6.1832 H 815.719 L 821.777,97.7695 805.305,44 789.359,97.7695 Z M 896.211,26.0898 v 14.211 l -8.301,-8.4141 h -23.582 v 32.6758 h 17.524 l 6.191,-6.1914 v 18.1836 l -6.191,-6.1992 h -17.524 v 27.664 h 23.582 l 8.301,-8.2968 v 14.0933 h -46.508 l 6.063,-6.1832 V 32.2813 l -6.063,-6.1915 z m 34.906,6.1915 v 30.039 h 11.735 l 18.832,-36.2305 h 12.921 l -6.062,6.1915 -17.387,31.8867 c 8.688,2.6367 14.625,10.8047 14.625,18.1679 0,13.1875 -12.254,21.4801 -25.164,21.4801 h -24.121 l 6.063,-6.1832 V 32.2813 l -6.063,-6.1915 h 20.824 z m 0,65.7382 h 9.5 c 8.301,0 14.875,-7.0976 14.875,-15.5312 0,-8.0508 -6.707,-14.3711 -14.875,-14.3711 h -9.5 z M 1031,47.6914 c 0,7.6484 -3.57,12.3828 -7.25,14.8984 l -15.81,11.4571 c -5.67,4.082 -8.557,9.3594 -8.557,13.3047 0,8.1718 6.967,11.0625 11.187,11.0625 2.24,0 3.82,-0.9219 5.01,-0.9219 l 6.85,-7.375 7.24,10.8128 -15.41,2.886 c -1.05,0.27 -1.71,0.399 -3.69,0.399 -13.562,0 -19.761,-11.5978 -19.761,-19.1056 0,-5.9258 3.027,-12.6446 10.021,-17.7852 l 15.93,-11.457 c 4.35,-3.0313 5.54,-7.5156 5.54,-11.3359 0,-6.586 -4.09,-13.7032 -12.91,-13.7032 -2.11,0 -3.95,0.3907 -5.4,1.0586 l -7.388,8.7031 -6.723,-12.1289 14.901,-2.8984 c 0,0 2.5,-0.5312 4.61,-0.5312 9.35,0 21.61,7.914 21.61,22.6601 m 22.52,56.1246 6.2,-6.1832 V 32.2813 l -6.2,-6.1915 h 20.95 l -6.19,6.1915 v 65.3515 l 6.19,6.1832 z m 70.49,-71.5347 v 65.7382 h 14.76 l 8.3,-8.2968 v 14.0933 h -54.68 V 89.7227 l 8.43,8.2968 h 14.62 V 32.2813 l -6.05,-6.1915 h 20.82 z m 40.97,65.3515 19.64,-35.4414 V 32.2813 l -6.19,-6.1915 h 20.94 l -6.2,6.1915 v 29.9101 l 20.03,35.3008 6.46,6.3238 h -19.23 l 6.06,-6.0465 -16.34,-29.1328 -15.54,29.1328 6.05,6.0465 h -22 z m 126.84,-22.3242 c -2.85,0 -7.33,-1.3125 -11.82,-3.9453 -7.56,-4.4766 -15.77,-14.6563 -15.77,-29.9805 0,-7.6601 3.62,-16.2031 13.8,-16.2031 4.81,0 11.71,3.1719 16.31,7.3281 7.22,6.5664 11.5,17.8516 11.5,27.586 0,9.082 -4.82,15.2148 -14.02,15.2148 M 1273.1,44 c 0,16.207 8.21,24.9609 11.61,26.3828 0.98,0.4375 2.5,0.8828 3.61,0.8828 5.46,0 8.64,-4.164 8.64,-12.6015 0.22,-14.211 -7.22,-27.1446 -11.82,-28.668 -0.88,-0.332 -2.3,-0.7617 -3.39,-0.7617 -6.12,0 -8.65,6.5625 -8.65,14.7656 m 49.26,28.6836 -2.95,-2.8438 0.32,-1.0859 h 9.08 c -1.42,-9.8633 -2.74,-18.3945 -4.81,-32.1953 -2.96,-20.457 -5.47,-27.69141 -7.55,-29.43751 -0.66,-0.66406 -1.75,-0.99218 -2.73,-0.99218 -1.33,0 -3.41,0.99218 -4.83,1.64062 -1.32,0.67188 -2.41,-0.10547 -3.05,-0.76172 -0.88,-0.98437 -1.86,-2.5039 -1.86,-3.72656 0,-2.18359 2.84,-3.27734375 4.7,-3.27734375 2.07,0 7.33,1.76172375 12.04,7.55859375 3.72,4.5859 8.75,15.207 13.02,39.9453 0.77,4.6094 1.64,9.1992 3.51,21.2461 l 11.15,1.0859 2.42,2.8438 h -12.91 c 3.27,20.2422 6.01,26.3867 10.72,26.3867 3.28,0 6.02,-1.3242 8.42,-3.625 0.77,-0.7617 1.97,-0.7617 3.06,0.1133 0.88,0.7695 2.2,2.5234 2.2,4.043 0.11,2.2034 -2.85,4.5974 -6.57,4.5974 -6.35,0 -13.02,-3.719 -17.62,-9.1834 -4.28,-5.1562 -7.11,-13.4609 -8.65,-22.332 z m 115.2,-46.5938 17.79,56.2461 17.26,-56.2461 h 3.95 l 22.52,71.543 6.34,6.1832 h -18.72 l 6.06,-6.0465 L 1476.3,44 l -15.94,53.7695 6.06,6.0465 h -22.01 l 6.2,-6.1832 1.57,-5.1406 L 1437.3,44 l -15.94,53.7695 6.06,6.0465 h -22.01 l 6.32,-6.1832 21.88,-71.543 z m 82.65,6.0586 5.67,16.4727 h 25.69 l 5.4,-16.4727 -6.07,-6.0586 h 22.01 l -6.19,6.3243 -24.24,71.4019 h -3.96 l -24.63,-71.4019 -6.33,-6.3243 h 18.71 z m 18.71,54.418 10.68,-32.1445 h -21.75 z m 86.97,-38.875 c 0,7.6484 -3.56,12.3828 -7.25,14.8984 l -15.8,11.4571 c -5.67,4.082 -8.58,9.3594 -8.58,13.3047 0,8.1718 6.99,11.0625 11.21,11.0625 2.24,0 3.82,-0.9219 5.01,-0.9219 l 6.84,-7.375 7.26,10.8128 -15.41,2.886 c -1.07,0.27 -1.72,0.399 -3.7,0.399 -13.57,0 -19.76,-11.5978 -19.76,-19.1056 0,-5.9258 3.03,-12.6446 10.01,-17.7852 l 15.94,-11.457 c 4.36,-3.0313 5.53,-7.5156 5.53,-11.3359 0,-6.586 -4.08,-13.7032 -12.91,-13.7032 -2.1,0 -3.95,0.3907 -5.4,1.0586 l -7.38,8.7031 -6.71,-12.1289 14.88,-2.8984 c 0,0 2.51,-0.5312 4.61,-0.5312 9.36,0 21.61,7.914 21.61,22.6601 m 35.04,17.3945 h 32.67 V 32.2813 l -6.18,-6.1915 h 20.95 l -6.2,6.1915 v 65.3515 l 6.2,6.1832 h -20.95 l 6.18,-6.1832 V 70.8711 h -32.67 v 26.7617 l 6.2,6.1832 h -20.83 l 6.07,-6.1832 V 32.2813 l -6.07,-6.1915 h 20.83 l -6.2,6.1915 z m 69.05,38.7301 6.19,-6.1832 V 32.2813 l -6.19,-6.1915 h 20.94 l -6.19,6.1915 v 65.3515 l 6.19,6.1832 z m 55.73,-71.0074 v 58.2383 l 40.89,-64.9844 3.51,0.0273 v 71.0118 l 6.72,6.7144 h -20.3 l 6.73,-6.7144 V 47.6914 l -35.05,56.1246 h -16.08 l 6.6,-6.7144 v -64.293 l -6.6,-6.7188 h 20.29 z m 115.26,28.5859 V 36.3672 c -1.84,-1.8399 -5.54,-5.5391 -12.79,-5.5391 -17.25,0 -25.96,17.4024 -25.96,34.1289 0,16.8711 10.94,34.1211 25.96,34.1211 3.96,0 6.85,-0.9179 9.49,-3.6836 l 8.56,-8.4414 v 13.4489 c -4.6,2.368 -9.22,4.485 -18.05,4.485 -21.2,0 -36.1,-18.9768 -36.1,-39.93 0,-20.5468 14.9,-39.9257 36.1,-39.9257 11.99,0 17.14,2.9062 21.34,5.6718 v 30.6914 l 6.07,6.1953 h -20.82 z m 57.55,-29.1132 v 65.7382 h 14.74 l 8.31,-8.2968 V 103.816 H 1926.9 V 89.7227 l 8.43,8.2968 h 14.62 V 32.2813 l -6.06,-6.1915 h 20.81 z m 35.15,32.6757 c 0,-19.7695 11.18,-40.5742 31.09,-40.5742 20.03,0 31.22,20.8047 31.22,40.5742 0,19.7578 -11.19,40.582 -31.22,40.582 -19.91,0 -31.09,-20.8242 -31.09,-40.582 m 31.09,-34.6601 c -15.55,0 -20.95,18.582 -20.95,34.6601 0,16.0782 5.4,34.6446 20.95,34.6446 15.69,0 21.09,-18.5664 21.09,-34.6446 0,-16.0781 -5.4,-34.6601 -21.09,-34.6601 m 60.05,2.5117 v 58.2383 l 40.43,-64.9571 h 3.98 v 71.0118 l 6.71,6.7144 h -20.3 l 6.73,-6.7144 V 47.6914 l -35.05,56.1246 h -16.06 l 6.59,-6.7144 v -64.293 l -6.59,-6.7188 h 20.27 l -6.71,6.7188"
         style="fill:#ffffff;fill-opacity:1;fill-rule:nonzero;stroke:none"
         id="path14" /><path
         d="M 565.738,167.313 H 2768.09"
         style="fill:#ffffff;fill-opacity:1;fill-rule:nonzero;stroke:none"
         id="path16" /><path
         d="M 565.738,167.313 H 2768.09"
         style="fill:none;stroke:#ffffff;stroke-width:5;stroke-linecap:butt;stroke-linejoin:miter;stroke-miterlimit:4;stroke-dasharray:none;stroke-opacity:1"
         id="path18" /><path
         d="m 332.102,330.641 v -54.887 h 38.57 L 327.609,115.488 c 0,0 -52.695,212.164 -53.453,215.153 h -55.73 C 217.629,327.727 160.617,115.48 160.617,115.48 l -39.668,160.274 h 40.164 v 54.887 H 0 v -54.887 h 35.7031 c 0,0 61.6016,-246.4102 62.3477,-249.3985 h 86.4722 c 0.77,2.9179 41.29,156.9255 41.29,156.9255 0,0 38.496,-153.9568 39.234,-156.9255 h 86.488 c 0.762,2.9375 65.59,249.3985 65.59,249.3985 h 35.398 v 54.887 H 332.102"
         style="fill:#ffffff;fill-opacity:1;fill-rule:nonzero;stroke:none"
         id="path20" /><path
         d="m 612.926,322.523 h -14.203 v -87.578 h 14.203 c 20.117,0 28.996,20.262 28.996,43.789 0,23.52 -8.879,43.789 -28.996,43.789 z m 0,-96.16 h -39.203 l 9.023,9.024 v 86.691 l -9.023,9.024 h 39.203 c 32.398,0 47.929,-25.598 47.929,-52.368 0,-26.777 -15.531,-52.371 -47.929,-52.371"
         style="fill:#ffffff;fill-opacity:1;fill-rule:nonzero;stroke:none"
         id="path22" /><path
         d="m 679.914,226.363 9.024,9.024 v 86.691 l -9.024,9.024 h 65.684 v -20.563 l -11.985,11.984 h -28.699 v -35.8 h 20.559 l 9.023,9.023 v -26.633 l -9.023,9.024 h -20.559 v -43.192 h 28.699 l 11.985,11.981 v -20.563 h -65.684"
         style="fill:#ffffff;fill-opacity:1;fill-rule:nonzero;stroke:none"
         id="path24" /><path
         d="m 801.051,322.523 h -12.719 v -43.199 h 12.719 c 11.98,0 21.597,8.133 21.597,21.598 0,13.461 -9.617,21.601 -21.597,21.601 z m 0,-51.777 h -12.719 v -35.359 l 9.023,-9.024 h -34.031 l 9.024,9.024 v 86.691 l -9.024,9.024 h 37.727 c 19.234,0 39.797,-9.176 39.797,-30.18 0,-21.008 -20.563,-30.176 -39.797,-30.176"
         style="fill:#ffffff;fill-opacity:1;fill-rule:nonzero;stroke:none"
         id="path26" /><path
         d="m 892.891,307.137 -14.645,-42.61 h 28.551 z m 14.648,-80.774 8.879,8.875 -6.66,20.711 h -34.469 l -6.953,-20.711 8.879,-8.875 h -28.11 l 9.172,9.172 33.286,95.567 h 9.761 l 32.547,-95.567 9.172,-9.172 h -35.504"
         style="fill:#ffffff;fill-opacity:1;fill-rule:nonzero;stroke:none"
         id="path28" /><path
         d="m 991.844,322.523 h -12.727 v -39.5 h 12.727 c 10.056,0 17.896,7.692 17.896,19.375 0,11.985 -7.55,20.125 -17.896,20.125 z m 26.176,-96.16 -24.997,48.078 h -13.906 v -39.054 l 9.024,-9.024 h -34.024 l 9.024,9.024 v 86.691 l -9.024,9.024 h 37.727 c 17.756,0 36.096,-9.176 36.096,-28.704 0,-10.945 -7.99,-21.152 -19.53,-24.847 l 23.23,-42.164 9.02,-9.024 h -22.64"
         style="fill:#ffffff;fill-opacity:1;fill-rule:nonzero;stroke:none"
         id="path30" /><path
         d="m 1111.94,322.523 h -17.61 v -87.136 l 9.03,-9.024 h -34.03 l 9.03,9.024 v 87.136 h -17.61 l -11.98,-11.984 v 20.563 h 75.15 v -20.563 l -11.98,11.984"
         style="fill:#ffffff;fill-opacity:1;fill-rule:nonzero;stroke:none"
         id="path32" /><path
         d="m 1214.88,226.363 9.02,9.024 v 78.258 l -32.69,-58.141 -32.69,58.141 v -78.258 l 9.02,-9.024 h -28.11 l 9.03,9.024 v 86.691 l -9.03,9.024 h 27.82 l 28.55,-50.891 28.4,50.891 h 24.71 l -9.03,-9.024 v -86.691 l 9.03,-9.024 h -34.03"
         style="fill:#ffffff;fill-opacity:1;fill-rule:nonzero;stroke:none"
         id="path34" /><path
         d="m 1266.63,226.363 9.02,9.024 v 86.691 l -9.02,9.024 h 65.68 v -20.563 l -11.98,11.984 h -28.7 v -35.8 h 20.56 l 9.02,9.023 v -26.633 l -9.02,9.024 h -20.56 v -43.192 h 28.7 l 11.98,11.981 v -20.563 h -65.68"
         style="fill:#ffffff;fill-opacity:1;fill-rule:nonzero;stroke:none"
         id="path36" /><path
         d="M 1429.78,322.078 V 217.781 l -60.65,94.235 v -76.629 l 9.02,-9.024 h -28.11 l 9.02,9.024 v 86.691 l -9.02,9.024 h 26.19 l 43.49,-68.2 v 59.176 l -9.03,9.024 h 28.11 l -9.02,-9.024"
         style="fill:#ffffff;fill-opacity:1;fill-rule:nonzero;stroke:none"
         id="path38" /><path
         d="m 1516.74,322.523 h -17.61 v -87.136 l 9.03,-9.024 h -34.02 l 9.02,9.024 v 87.136 h -17.61 l -11.98,-11.984 v 20.563 h 75.15 v -20.563 l -11.98,11.984"
         style="fill:#ffffff;fill-opacity:1;fill-rule:nonzero;stroke:none"
         id="path40" /><path
         d="m 1633.87,324.738 c -19.97,0 -25.74,-25.297 -25.74,-46.004 0,-20.714 5.77,-46.011 25.74,-46.011 19.97,0 25.74,25.297 25.74,46.011 0,20.707 -5.77,46.004 -25.74,46.004 z m 0,-100.593 c -27.67,0 -44.97,27.218 -44.97,54.589 0,27.368 17.3,54.59 44.97,54.59 27.66,0 44.97,-27.222 44.97,-54.59 0,-27.371 -17.31,-54.589 -44.97,-54.589"
         style="fill:#ffffff;fill-opacity:1;fill-rule:nonzero;stroke:none"
         id="path42" /><path
         d="m 1751.6,322.523 h -28.7 v -35.8 h 20.56 l 9.03,9.023 v -26.633 l -9.03,9.024 h -20.56 v -42.75 l 9.02,-9.024 h -34.02 l 9.02,9.024 v 86.691 l -9.02,9.024 h 65.68 v -20.563 l -11.98,11.984"
         style="fill:#ffffff;fill-opacity:1;fill-rule:nonzero;stroke:none"
         id="path44" /><path
         d="m 1859.56,322.523 h -12.72 v -43.199 h 12.72 c 11.98,0 21.6,8.133 21.6,21.598 0,13.461 -9.62,21.601 -21.6,21.601 z m 0,-51.777 h -12.72 v -35.359 l 9.03,-9.024 h -34.03 l 9.03,9.024 v 86.691 l -9.03,9.024 h 37.72 c 19.23,0 39.8,-9.176 39.8,-30.18 0,-21.008 -20.57,-30.176 -39.8,-30.176"
         style="fill:#ffffff;fill-opacity:1;fill-rule:nonzero;stroke:none"
         id="path46" /><path
         d="m 1943.57,225.18 c -3.11,0 -6.66,0.297 -9.18,0.742 l -21.74,3.84 10.5,19.234 11.54,-14.496 c 2.37,-1.48 6.66,-2.223 10.06,-2.223 13.9,0 18.04,11.985 18.04,18.496 0,7.543 -4.73,12.278 -9.46,15.383 l -21.45,14.055 c -8.88,5.769 -14.06,14.199 -14.06,23.965 0,19.082 15.69,28.105 29.89,28.105 4.73,0 9.02,-0.886 13.02,-1.625 l 15.97,-2.957 -10.5,-17.75 -9.47,11.531 c -2.07,1.926 -4.59,3.114 -8.14,3.114 -10.05,0 -15.83,-7.692 -15.83,-14.5 0,-5.77 2.82,-11.098 10.81,-16.418 l 18.49,-12.281 c 8.14,-5.473 15.38,-12.426 15.38,-23.672 0,-16.86 -10.2,-32.543 -33.87,-32.543"
         style="fill:#ffffff;fill-opacity:1;fill-rule:nonzero;stroke:none"
         id="path48" /><path
         d="m 2066.18,322.078 -25.89,-47.34 v -39.351 l 9.03,-9.024 h -34.03 l 9.03,9.024 v 39.644 l -26.48,46.895 -9.17,9.176 h 36.24 l -8.87,-8.879 20.26,-36.836 19.38,36.836 -8.88,8.879 h 28.41 l -9.03,-9.024"
         style="fill:#ffffff;fill-opacity:1;fill-rule:nonzero;stroke:none"
         id="path50" /><path
         d="m 2131.11,224.887 c -27.08,0 -44.53,26.476 -44.53,53.847 0,27.805 17.9,53.848 44.53,53.848 13.6,0 20.85,-3.406 26.47,-6.211 v -21.457 l -14.35,14.352 c -3.4,3.55 -7.1,5.027 -12.12,5.027 -19.97,0 -25.3,-25.145 -25.3,-45.559 0,-20.418 6.06,-45.566 25.3,-45.566 5.02,0 8.72,1.477 12.12,5.027 l 14.35,14.352 v -21.598 c -5.17,-3.109 -11.83,-6.062 -26.47,-6.062"
         style="fill:#ffffff;fill-opacity:1;fill-rule:nonzero;stroke:none"
         id="path52" /><path
         d="m 2230.79,226.363 9.02,9.024 v 42.75 h -39.5 v -42.75 l 9.03,-9.024 h -34.03 l 9.02,9.024 v 86.691 l -9.02,9.024 h 34.03 l -9.03,-9.024 v -35.355 h 39.5 v 35.355 l -9.02,9.024 h 34.03 l -9.03,-9.024 v -86.691 l 9.03,-9.024 h -34.03"
         style="fill:#ffffff;fill-opacity:1;fill-rule:nonzero;stroke:none"
         id="path54" /><path
         d="m 2328.85,324.738 c -19.97,0 -25.75,-25.297 -25.75,-46.004 0,-20.714 5.78,-46.011 25.75,-46.011 19.97,0 25.74,25.297 25.74,46.011 0,20.707 -5.77,46.004 -25.74,46.004 z m 0,-100.593 c -27.67,0 -44.98,27.218 -44.98,54.589 0,27.368 17.31,54.59 44.98,54.59 27.66,0 44.96,-27.222 44.96,-54.59 0,-27.371 -17.3,-54.589 -44.96,-54.589"
         style="fill:#ffffff;fill-opacity:1;fill-rule:nonzero;stroke:none"
         id="path56" /><path
         d="m 2392.88,226.363 9.02,9.024 v 86.691 l -9.02,9.024 h 34.02 l -9.03,-9.024 v -87.133 h 25.01 l 11.98,11.981 v -20.563 h -61.98"
         style="fill:#ffffff;fill-opacity:1;fill-rule:nonzero;stroke:none"
         id="path58" /><path
         d="m 2516.08,324.738 c -19.97,0 -25.74,-25.297 -25.74,-46.004 0,-20.714 5.77,-46.011 25.74,-46.011 19.98,0 25.74,25.297 25.74,46.011 0,20.707 -5.76,46.004 -25.74,46.004 z m 0,-100.593 c -27.66,0 -44.97,27.218 -44.97,54.589 0,27.368 17.31,54.59 44.97,54.59 27.67,0 44.97,-27.222 44.97,-54.59 0,-27.371 -17.3,-54.589 -44.97,-54.589"
         style="fill:#ffffff;fill-opacity:1;fill-rule:nonzero;stroke:none"
         id="path60" /><path
         d="m 2663.55,273.996 v -41.422 c -7.25,-4.293 -14.2,-7.687 -31.52,-7.687 -28.4,0 -50.59,24.699 -50.59,53.847 0,29.141 22.93,53.848 51.33,53.848 12.14,0 19.83,-2.812 26.34,-6.066 v -21.602 l -14.35,14.352 c -3.4,3.402 -6.96,5.027 -11.99,5.027 -20.12,0 -31.95,-23.813 -31.95,-45.559 0,-21.75 11.83,-45.566 31.95,-45.566 6.66,0 12.14,2.512 14.8,5.18 v 35.648 l -9.03,9.027 h 34.03 l -9.02,-9.027"
         style="fill:#ffffff;fill-opacity:1;fill-rule:nonzero;stroke:none"
         id="path62" /><path
         d="m 2757.01,322.078 -25.89,-47.34 v -39.351 l 9.03,-9.024 h -34.03 l 9.03,9.024 v 39.644 l -26.48,46.895 -9.17,9.176 h 36.24 l -8.87,-8.879 20.26,-36.836 19.38,36.836 -8.88,8.879 h 28.41 l -9.03,-9.024"
         style="fill:#ffffff;fill-opacity:1;fill-rule:nonzero;stroke:none"
         id="path64" /></g></g></svg>
